# xmcd CD database file
#
# Track frame offsets:
#	150
#	16522
#	33102
#	52322
#	71808
#	86571
#	114047
#	129341
#	143827
#	165021
#	182235
#	204307
#	221099
#
# Disc length: 3202 seconds
#
# Revision: 2
# Processed by: cddbd v1.5.1PL0 Copyright (c) Steve Scherf et al.
# Submitted via: CDex 1.51
#
DISCID=a70c800d
DTITLE=Joo Kraus - Public Jazz Lounge
DYEAR=2003
DGENRE=Jazz
TTITLE0=Red Clay
TTITLE1=Fast Forward
TTITLE2=Leaves
TTITLE3=Venus as a Boy
TTITLE4=Gib' Mir Die Nacht
TTITLE5=Scarborough Fair
TTITLE6=Love Is All We Need
TTITLE7=Birdland
TTITLE8=Hounds of Winter
TTITLE9=Getaway
TTITLE10=Back to the Basics
TTITLE11=Meanwhile Life Goes On
TTITLE12=One Moment in Time
EXTD=YEAR: 2003
EXTT0=
EXTT1=
EXTT2=
EXTT3=
EXTT4=
EXTT5=
EXTT6=
EXTT7=
EXTT8=
EXTT9=
EXTT10=
EXTT11=
EXTT12=
PLAYORDER=
